# xmcd CD database file
#
# Track frame offsets:
#	150
#	17964
#	36298
#	55036
#	71448
#	92904
#	105877
#	125649
#	142929
#	164577
#	179722
#
# Disc length: 2560 seconds
#
# Revision: 0
# Processed by: cddbd v1.5.2PL0 Copyright (c) Steve Scherf et al.
# Submitted via: CDex 1.70beta2
#
DISCID=9709fe0b
DTITLE=岩波邦江 - Eight to Ten plus
DYEAR=2006
DGENRE=Jazz
TTITLE0=I'll Never Fall In Love Again
TTITLE1=The Shadow Of Your Smile
TTITLE2=Caravan
TTITLE3=Girl Talk
TTITLE4=That's All
TTITLE5=Bye Bye Blackbird
TTITLE6=The Good Life
TTITLE7=I Won't Dance
TTITLE8=It Never Entered My Mind
TTITLE9=Lullaby Of Birdland
TTITLE10=My Foolish Heart
EXTD=YEAR: 2006
EXTT0=
EXTT1=
EXTT2=
EXTT3=
EXTT4=
EXTT5=
EXTT6=
EXTT7=
EXTT8=
EXTT9=
EXTT10=
PLAYORDER=
